# Blender 4.0.2
# www.blender.org
o Cube.001
v 0.500000 0.500000 -0.500000
v 0.500000 -0.500000 -0.500000
v 0.500000 0.500000 0.500000
v 0.500000 -0.500000 0.500000
v -0.500000 0.500000 -0.500000
v -0.500000 -0.500000 -0.500000
v -0.500000 0.500000 0.500000
v -0.500000 -0.500000 0.500000
vn -0.0000 1.0000 -0.0000
vn -0.0000 -0.0000 1.0000
vn -1.0000 -0.0000 -0.0000
vn -0.0000 -1.0000 -0.0000
vn 1.0000 -0.0000 -0.0000
vn -0.0000 -0.0000 -1.0000
vt 0.000000 0.000000
vt 1.000000 1.000000
vt 1.000000 0.000000
vt 0.000000 1.000000
s 0
f 5/1/1 3/2/1 1/3/1
f 3/2/2 8/1/2 4/3/2
f 7/2/3 6/1/3 8/4/3
f 2/3/4 8/4/4 6/1/4
f 1/3/5 4/4/5 2/1/5
f 5/4/6 2/3/6 6/1/6
f 5/1/1 7/4/1 3/2/1
f 3/2/2 7/4/2 8/1/2
f 7/2/3 5/3/3 6/1/3
f 2/3/4 4/2/4 8/4/4
f 1/3/5 3/2/5 4/4/5
f 5/4/6 1/2/6 2/3/6
